<?xml version="1.0" standalone="no"?><!DOCTYPE svg PUBLIC "-//W3C//DTD SVG 1.1//EN" "http://www.w3.org/Graphics/SVG/1.1/DTD/svg11.dtd"><svg t="1626071088285" class="icon" viewBox="0 0 1234 1024" version="1.1" xmlns="http://www.w3.org/2000/svg" p-id="630" xmlns:xlink="http://www.w3.org/1999/xlink" width="241.015625" height="200"><defs><style type="text/css"></style></defs><path d="M56.889575 56.888889h668.444444v345.884444h56.888889V34.531556A34.304 34.304 0 0 0 748.231797 0H33.991797A34.304 34.304 0 0 0 0.000686 34.503111v780.231111a34.275556 34.275556 0 0 0 33.991111 34.474667h363.918222v-56.888889H56.889575z" fill="#ccc" p-id="631"></path><path d="M163.556242 188.103111h455.111111v50.574222h-455.111111zM163.556242 352.056889h455.111111v50.574222h-455.111111zM894.919797 661.219556c-0.455111-0.426667-1.024-0.568889-1.479111-0.995556l-134.712889-134.684444a28.444444 28.444444 0 1 0-40.220444 40.220444l87.182222 87.182222H324.665575a28.444444 28.444444 0 0 0 0 56.888889h481.422222l-87.751111 87.751111a28.444444 28.444444 0 1 0 40.220444 40.248889l136.362667-136.391111a28.444444 28.444444 0 0 0 0-40.220444z" fill="#ccc" p-id="632"></path></svg>