<?xml version="1.0" standalone="no"?><!DOCTYPE svg PUBLIC "-//W3C//DTD SVG 1.1//EN" "http://www.w3.org/Graphics/SVG/1.1/DTD/svg11.dtd"><svg class="icon" width="200px" height="200.00px" viewBox="0 0 1024 1024" version="1.1" xmlns="http://www.w3.org/2000/svg"><path fill="#ccc" d="M805.8 128H218.2c-49.6 0-90 40.4-90 90v588c0 49.6 40.4 90 90 90h587.6c49.6 0 90-40.4 90-90V218c0-49.6-40.4-90-90-90z m-587.6 60h587.6c16.5 0 30 13.5 30 30v484H188.2V218c0-16.5 13.5-30 30-30z m587.6 648H218.2c-16.5 0-30-13.5-30-30v-44h647.6v44c0 16.5-13.5 30-30 30zM630 703.5H383.9c-49.6 0-90-40.4-90-90V366.8c0-49.6 40.4-90 90-90H630c49.6 0 90 40.4 90 90v246.7c0 49.6-40.4 90-90 90zM383.9 336.8c-16.5 0-30 13.5-30 30v246.7c0 16.5 13.5 30 30 30H630c16.5 0 30-13.5 30-30V366.8c0-16.5-13.5-30-30-30H383.9zM599.3 459h-183c-11 0-20-9-20-20s9-20 20-20h183c11 0 20 9 20 20s-9 20-20 20z m0 71h-183c-11 0-20-9-20-20s9-20 20-20h183c11 0 20 9 20 20s-9 20-20 20z m0 71h-183c-11 0-20-9-20-20s9-20 20-20h183c11 0 20 9 20 20s-9 20-20 20zM344.6 784.6l-34.8 45.7c-3.2 4.3-2.6 10.3 1.6 13.7l2.2 1.8c4.4 3.6 10.9 2.9 14.4-1.6l34.8-45.7c3.2-4.3 2.6-10.3-1.6-13.7L359 783c-4.4-3.6-11-2.9-14.4 1.6zM320 858.2c-4.7 0-9.2-1.6-12.8-4.6l-2.2-1.8c-8.2-6.9-9.6-18.9-3.1-27.5l34.8-45.7c3.3-4.3 8.3-7.1 13.7-7.8 5.4-0.6 10.9 1 15 4.5l2.2 1.8c8.2 6.9 9.6 18.9 3.1 27.5l-34.8 45.7c-3.3 4.3-8.3 7.1-13.7 7.8-0.7 0.1-1.5 0.1-2.2 0.1z m32.5-67.5l-34.8 45.7 2.2 1.8 34.8-45.7-2.2-1.8z m106.4-6.1l-34.8 45.7c-3.2 4.3-2.6 10.3 1.6 13.7l2.2 1.8c4.4 3.6 10.9 2.9 14.4-1.6l34.8-45.7c3.2-4.3 2.6-10.3-1.6-13.7l-2.2-1.8c-4.4-3.6-10.9-2.9-14.4 1.6z m-24.5 73.6c-4.7 0-9.2-1.6-12.8-4.6l-2.2-1.8c-8.2-6.9-9.6-18.9-3.1-27.5l34.8-45.7c3.3-4.3 8.3-7.1 13.7-7.8 5.4-0.6 10.9 1 15 4.5l2.2 1.8c8.2 6.9 9.6 18.9 3.1 27.5l-34.8 45.7c-3.3 4.3-8.3 7.1-13.7 7.8-0.8 0.1-1.5 0.1-2.2 0.1z m32.5-67.5l-34.8 45.7 2.2 1.8 34.8-45.7-2.2-1.8z m106.4-6.1l-34.8 45.7c-3.2 4.3-2.6 10.3 1.6 13.7l2.2 1.8c4.4 3.6 10.9 2.9 14.4-1.6l34.8-45.7c3.2-4.3 2.6-10.3-1.6-13.7l-2.2-1.8c-4.4-3.6-10.9-2.9-14.4 1.6z m-24.6 73.6c-4.7 0-9.2-1.6-12.8-4.6l-2.2-1.9c-8.2-6.9-9.6-18.9-3.1-27.5l34.8-45.7c3.3-4.3 8.3-7.1 13.7-7.8 5.4-0.6 10.9 1 15 4.5l2.2 1.8c8.2 6.9 9.6 18.9 3.1 27.5l-34.8 45.7c-3.3 4.3-8.3 7.1-13.7 7.8-0.7 0.2-1.4 0.2-2.2 0.2z m24.6-73.6l8 6.1-34.8 45.7 2.2 1.8 34.8-45.7-2.2-1.8-8-6.1z m114.4 0l-34.8 45.7c-3.2 4.3-2.6 10.3 1.6 13.7l2.2 1.8c4.4 3.6 10.9 2.9 14.4-1.6l34.8-45.7c3.2-4.3 2.6-10.3-1.6-13.7L702 783c-4.3-3.6-10.9-2.9-14.3 1.6z m-24.6 73.6c-4.7 0-9.2-1.6-12.8-4.6l-2.2-1.8c-8.2-6.9-9.6-18.9-3.1-27.5l34.8-45.7c3.3-4.3 8.3-7.1 13.7-7.8 5.4-0.6 10.9 1 15 4.5l2.2 1.8c8.3 6.9 9.6 18.9 3.1 27.5L679 850.3c-3.3 4.3-8.3 7.1-13.7 7.8-0.7 0.1-1.5 0.1-2.2 0.1z m32.5-67.5l-34.8 45.7 2.2 1.8 34.8-45.7-2.2-1.8z m106.5-6.1l-34.8 45.7c-3.2 4.3-2.6 10.3 1.6 13.7l2.2 1.8c4.4 3.6 10.9 2.9 14.4-1.6l34.8-45.7c3.2-4.3 2.6-10.3-1.6-13.7l-2.2-1.8c-4.5-3.6-11-2.9-14.4 1.6z m-24.6 73.6c-4.7 0-9.2-1.6-12.8-4.6l-2.2-1.8c-8.2-6.9-9.6-18.9-3.1-27.5l34.8-45.7c3.3-4.3 8.3-7.1 13.7-7.8 5.4-0.6 10.9 1 15 4.5l2.2 1.8c8.3 6.9 9.6 18.9 3.1 27.5l-34.8 45.7c-3.3 4.3-8.3 7.1-13.7 7.8-0.8 0.1-1.5 0.1-2.2 0.1z m32.5-67.5l-34.8 45.7 2.2 1.8 34.8-45.7-2.2-1.8z m-579.8-6.1l-34.8 45.7c-3.2 4.3-2.6 10.3 1.6 13.7l2.2 1.8c4.4 3.6 10.9 2.9 14.4-1.6l34.8-45.7c3.2-4.3 2.6-10.3-1.6-13.7l-2.2-1.8c-4.4-3.6-10.9-2.9-14.4 1.6z m-24.6 73.6c-4.7 0-9.2-1.6-12.8-4.6l-2.2-1.8c-8.2-6.9-9.6-18.9-3.1-27.5l34.8-45.7c3.3-4.3 8.3-7.1 13.7-7.8 5.4-0.6 10.9 1 15 4.5l2.2 1.8c8.2 6.9 9.6 18.9 3.1 27.5l-34.8 45.7c-3.3 4.3-8.3 7.1-13.7 7.8-0.7 0.1-1.4 0.1-2.2 0.1z m24.6-73.6l8 6.1-34.8 45.7 2.2 1.8 34.8-45.7-2.2-1.8-8-6.1z"  /></svg>