<?xml version="1.0" standalone="no"?><!DOCTYPE svg PUBLIC "-//W3C//DTD SVG 1.1//EN" "http://www.w3.org/Graphics/SVG/1.1/DTD/svg11.dtd"><svg class="icon" width="200px" height="200.00px" viewBox="0 0 1024 1024" version="1.1" xmlns="http://www.w3.org/2000/svg"><path d="M537.4 618.3l-28.5-7.1-29.1 7.1v-42.8h57.6zM704.1 617.1l-28.4-7.1-29.2 7.1v-42.8h57.6z" fill="#FFAF00" /><path d="M758.2 734.9h-177c-6.6 0-11.9-5.1-11.9-11.5V570.2c0-6.3 5.3-11.5 11.9-11.5h177c6.6 0 11.9 5.1 11.9 11.5v153.3c0 6.3-5.3 11.4-11.9 11.4zM593.1 712h153.2V581.6H593.1V712zM424.7 733.5h-177c-6.6 0-11.9-5.1-11.9-11.5V568.8c0-6.3 5.3-11.5 11.9-11.5h177c6.6 0 11.9 5.1 11.9 11.5V722c0 6.4-5.3 11.5-11.9 11.5z m-165.1-22.9h153.2V580.2H259.6v130.4z" fill="#ccc" /><path d="M364.2 617.1l-28.4-7.1-29.2 7.1v-42.8h57.6z" fill="#ccc" /><path d="M440.6 577.6H282.8c-6.6 0-11.9-5.1-11.9-11.5V429.6c0-6.3 5.3-11.5 11.9-11.5h157.7c6.6 0 11.9 5.1 11.9 11.5v136.6c0.1 6.3-5.3 11.4-11.8 11.4z m-145.8-22.9h133.9V441H294.8v113.7z" fill="#ccc" /><path d="M378.2 479.5l-25.4-6.3-26 6.3v-38.1h51.4z" fill="#FFAF00" /><path d="M598.3 577.6H440.6c-6.6 0-11.9-5.1-11.9-11.5V429.6c0-6.3 5.3-11.5 11.9-11.5h157.7c6.6 0 11.9 5.1 11.9 11.5v136.6c0 6.3-5.3 11.4-11.9 11.4z m-145.8-22.9h133.9V441H452.5v113.7z" fill="#ccc" /><path d="M539.2 479.5l-25.4-6.3-26 6.3v-38.1h51.4z" fill="#FFAF00" /><path d="M932.7 752.6h-78.1c-8.8 0-15.9-6.8-15.9-15.3v-230c0-8.4 7.1-15.3 15.9-15.3s15.9 6.8 15.9 15.3v214.8h46.4V228.5L506.7 57.6 110.5 228.3v486.9h46.4V320.8c0-8.4 7.1-15.3 15.9-15.3h406.6c8.8 0 15.9 6.8 15.9 15.3 0 8.4-7.1 15.3-15.9 15.3H188.7v394.4c0 8.4-7.1 15.3-15.9 15.3H94.6c-8.8 0-15.9-6.8-15.9-15.3V218.4c0-6 3.7-11.5 9.4-13.9L500.1 27c4.1-1.8 8.7-1.8 12.8-0.1L939 204.4c5.8 2.4 9.6 7.9 9.6 14v518.9c0 8.5-7.1 15.3-15.9 15.3z" fill="#ccc" /><path d="M717.9 993H306.6c-5 0-9.7-2.3-12.7-6.1-3-3.9-3.9-8.8-2.5-13.5L367.7 725c2-6.5 8.2-10.9 15.2-10.9h258.7c7 0 13.2 4.5 15.2 10.9l76.3 248.4c1.4 4.6 0.5 9.6-2.5 13.5-2.9 3.8-7.6 6.1-12.7 6.1z m-390-30.5h368.8l-66.9-217.8h-235l-66.9 217.8z" fill="#ccc" /><path d="M579.4 801.1H445.2c-8.8 0-15.9-6.8-15.9-15.3s7.1-15.3 15.9-15.3h134.2c8.8 0 15.9 6.8 15.9 15.3s-7.1 15.3-15.9 15.3zM747.5 367v-68c0-8.4 7.1-15.3 15.9-15.3s15.9 6.8 15.9 15.3v68c0 8.4-7.1 15.3-15.9 15.3s-15.9-6.8-15.9-15.3z" fill="#ccc" /><path d="M763.1 351.8h70.7c8.8 0 15.9 6.8 15.9 15.3 0 8.4-7.1 15.3-15.9 15.3h-70.7c-8.8 0-15.9-6.8-15.9-15.3s7.1-15.3 15.9-15.3zM610.4 871.6H414.2c-8.8 0-15.9-6.8-15.9-15.3s7.1-15.3 15.9-15.3h196.2c8.8 0 15.9 6.8 15.9 15.3s-7.1 15.3-15.9 15.3zM641.4 934.2H383.2c-8.8 0-15.9-6.8-15.9-15.3s7.1-15.3 15.9-15.3h258.2c8.8 0 15.9 6.8 15.9 15.3s-7.2 15.3-15.9 15.3z" fill="#ccc" /><path d="M765.2 486.6c-74.7 0-135.4-58.4-135.4-130.2s60.8-130.2 135.4-130.2 135.4 58.4 135.4 130.2-60.7 130.2-135.4 130.2z m0-229.8c-57.2 0-103.7 44.7-103.7 99.7s46.5 99.7 103.7 99.7 103.7-44.7 103.7-99.7-46.5-99.7-103.7-99.7z" fill="#ccc" /></svg>